<svg width="659" height="689" viewBox="0 0 659 689" fill="none" xmlns="http://www.w3.org/2000/svg">
<path fill-rule="evenodd" clip-rule="evenodd" d="M613.896 648.592C609.629 651.033 604.631 652.918 599.891 654.183C597.107 654.927 592.507 657.222 590.061 655.118C588.887 654.108 588.618 651.815 587.925 650.485C586.829 648.381 585.27 646.563 583.81 644.703C580.271 640.196 576.589 635.848 572.736 631.607C570.91 629.597 567.575 624.906 564.358 625.215C560.348 625.599 560.444 631.15 561.449 633.986C564.649 643.014 574.334 650.883 580.661 657.685C579.052 660.161 570.218 659.865 567.765 659.287C564.019 658.402 563.64 655.736 561.931 652.684C557.933 645.555 549.822 641.567 543.155 637.376C540.724 635.846 535.558 631.61 532.39 632.676C529.388 633.687 529.518 637.521 530.474 640.026C531.918 643.811 536.027 646.436 539.066 648.828C543.118 652.016 546.823 655.486 550.199 659.389C545.332 659.786 540.483 660.472 535.629 660.872C529.758 661.357 524.865 658.135 519.46 656.309C514.438 654.612 509.434 653.178 504.496 651.222C498.952 649.026 493.144 648.263 487.551 646.336C465.602 638.777 444.096 629.269 422.945 619.685C412.867 615.118 402.996 610.548 392.494 606.975C384.841 604.369 372.815 599.177 370.985 590.061C370.019 585.245 373.538 580.065 374.057 575.252C374.665 569.591 374.186 563.362 372.462 557.93C370.941 553.144 368.422 548.713 366.437 544.119C364.124 538.764 366.195 538.851 370.688 538.242C376.066 537.512 382.342 534.485 387.397 532.514C393.22 530.241 398.993 527.066 404.326 523.802C409.15 520.85 413.347 517.044 417.187 512.911C421.094 508.706 423.623 503.724 427.4 499.417C441.339 516.56 454.588 533.963 469.4 550.365C476.39 558.108 483.992 564.509 492.607 570.395C496.204 572.855 499.773 575.662 503.692 577.605C508.593 580.038 514.072 581.547 519.109 583.767C538.423 592.277 556.855 601.58 574.874 612.56C583.591 617.872 590.907 623.962 598.582 630.625C600.972 632.699 620.542 644.788 613.896 648.592ZM387.329 508.151C384.208 509.566 381.233 511.402 377.903 512.309C378.847 506.566 384.207 497.902 391.079 498.855C393.705 499.218 395.685 501.257 394.532 504.068C393.483 506.623 389.553 507.145 387.329 508.151ZM170.076 352.358C166.538 354.312 163.241 355.45 161.166 351.257C162.703 350.948 169.684 350.018 170.076 352.358ZM164.185 340.504C161.45 339.675 163.637 338.803 164.578 337.802C165.311 337.024 167.738 334.292 168.587 333.841C172.338 331.854 175.237 339.247 177.031 341.646C172.785 341.269 168.318 341.757 164.185 340.504ZM193.422 366.102C188.239 366.98 188.814 360.495 188.969 357.21C190.062 358.545 197.463 365.417 193.422 366.102ZM210.598 354.901C204.279 355.968 200.104 345.051 201.237 340.275C202.233 336.069 207.13 333.72 211.029 333.1C214.807 332.498 220.068 333.319 221.19 337.676C222.182 341.528 214.809 354.191 210.598 354.901ZM360.171 519.704C355.63 521.1 351.181 521.276 346.617 522.645C341.439 524.2 336.646 524.062 331.457 525.12C329.346 525.549 323.652 528.625 321.593 527.938C319.553 527.257 316.601 520.927 315.429 519.281C324.609 515.465 332.441 510.538 338.492 502.498C343.303 496.104 348.463 486.524 345.436 478.272C342.022 468.968 330.254 466.947 322.408 470.834C318.696 472.671 315.017 474.957 311.956 477.757C308.457 480.959 307.081 484.455 304.814 488.404C302.522 492.399 300.913 490.177 298.622 486.785C296.665 483.886 296.92 480.958 294.474 478.097C293.226 476.638 291.293 475.23 290.642 473.345C290.229 472.15 291.099 470.031 290.316 469.089C289.215 467.767 287.875 469.321 286.952 468.141C286.282 467.283 286.501 465.328 285.809 464.256C285.208 463.646 284.541 463.125 283.802 462.693C282.906 462.25 282.743 461.696 283.311 461.031C282.599 459.712 283.285 459.268 281.76 457.663C279.382 455.163 277.214 452.766 275.521 449.815C274.748 448.464 274.824 446.46 273.863 445.291C272.544 443.686 270.347 443.927 269.213 441.94C268.203 440.169 268.879 437.072 267.213 435.464C266.335 435.214 265.456 434.968 264.577 434.725C263.915 434.082 263.53 433.303 263.42 432.385C262.495 430.96 262.311 429.287 261.143 427.783C258.907 424.905 255.9 422.246 253.925 419.211C251.849 416.022 252.95 415.484 256.556 414.343C259.808 413.313 262.778 412.356 265.793 410.602C279.73 402.491 292.943 380.976 270.821 374.403C262.612 371.964 255.868 365.405 246.765 367.983C242.819 369.101 239.076 371.481 236.132 374.305C234.098 376.257 232.214 381.478 229.717 382.479C225.227 384.277 227.125 379.784 225.851 377.72C225.242 376.735 222.793 375.6 221.885 374.704C220.82 373.653 219.79 372.326 219.05 371.026C217.677 368.613 216.837 367.268 214.857 365.303C214.111 364.561 210.384 360.728 213.745 361.229C212.384 357.081 214.37 356.457 217.116 353.426C220.34 349.866 223.669 344.921 223.688 339.934C223.725 330.358 212.379 326.068 205.253 331.752C203.803 332.908 195.227 344.073 196.982 336.953C197.928 333.113 206.688 323.089 210.749 325.683C206.198 319.049 195.743 335.155 193.303 338.451C191.225 334.625 191.078 331.632 187.64 328.67C184.841 333.16 186.319 328.254 185.702 327.256C184.369 325.103 185.101 327.566 184.378 326.801C183.478 325.848 182.061 325.097 181.103 323.835C179.462 326.061 180.118 323.666 179.615 322.834C178.44 320.89 178.894 319.763 176.88 318.073C175.414 316.843 172.526 314.934 170.553 314.76C168.278 314.558 167.648 315.43 165.33 314.784C162.381 313.965 158.67 312.705 160.097 317.637C161.134 321.221 165.348 323.258 166.271 326.92C167.2 330.607 163.555 334.322 161.787 337.344C159.516 341.221 157.659 340.904 153.545 341.778C150.916 342.337 147.407 343.532 149.662 346.722C151.272 349.001 155.046 348.521 157.171 349.87C160.151 351.763 160.11 356.429 163.915 357.241C168.105 358.134 170.505 353.469 174.038 352.343C176.55 351.542 184.332 351.631 186.309 353.517C189.003 356.087 186.675 360.997 187.353 364.19C188.362 368.925 191.565 369.213 195.616 369.365C200.603 369.551 202.356 374.34 205.038 378.138C211.32 387.035 216.78 396.519 223.215 405.297C226.064 409.184 230.231 412.641 232.563 416.859C235.443 422.069 231.444 425.073 227.994 428.812C223.485 433.699 220.119 439.259 216.208 444.599C212.733 449.345 208.414 448.164 202.861 448.164C204.098 445.612 205.587 444.021 208.632 444.331C205.448 440.443 202.902 444.89 200.837 447.353C197.849 450.916 193.954 451.775 190.116 454.117C188.758 454.946 181.363 460.317 183.61 462.152C183.865 462.359 196.107 454.306 197.501 453.568C197.501 456.541 196.851 459.629 197.268 462.586C197.573 464.754 199.097 467.015 198.772 469.269C198.157 473.524 192.658 476.875 190.298 480.19C188.521 482.685 188.95 484.654 188.046 487.332C187.221 489.775 187.654 489.036 185.599 489.79C181.415 491.327 174.372 490.498 170.583 488.313C168.231 486.957 166.428 484.813 164.517 482.923C163.078 481.499 159.458 479.066 159.058 477.073C158.372 473.641 165.185 467.264 166.533 463.725C170.341 453.735 163.811 445.97 153.649 445.402C156.781 442.986 160.663 444.807 163.964 445.729C158.321 437.909 148.682 444.344 143.895 449.658C140.624 441.39 139.047 432.668 137.049 424.044C135.688 418.174 130.507 407.695 132.818 401.649C133.935 398.727 137.089 397.098 139.27 395.071C141.749 392.768 143.872 390.015 145.684 387.165C149.953 380.45 152.419 371.975 146.54 365.358C148.326 365.064 150.113 364.771 151.899 364.477C148.994 361.747 144.41 363.077 140.64 362.267C138.248 361.754 131.364 362.086 129.767 360.732C127.846 359.105 129.078 351.614 129.146 349.398C129.304 344.217 129.737 339.236 130.309 334.087C130.851 329.222 130.742 323.967 131.747 319.188C132.563 315.309 135.171 314.128 138.18 311.842C145.372 306.377 151.233 299.73 148.777 290.313C149.647 290.175 150.517 290.037 151.387 289.898C148.573 287.864 144.932 288.604 141.802 287.528C144.676 279.438 151.033 265.216 161.355 264.45C161.71 268.067 161.467 272.368 163.907 275.362C166.685 278.769 171.561 279.113 175.324 277.31C178.739 275.673 181.944 272.203 183.518 268.774C184.583 266.454 184.391 262.53 186.26 260.69C188.766 258.223 206.047 259.711 205.518 263.875C205.206 266.324 200.585 270.439 199.294 272.609C196.93 276.58 195.038 280.875 194.17 285.436C192.853 292.361 193.616 301.504 200.649 305.146C208.648 309.288 218.396 304.021 224.956 299.472C228.558 296.973 232.047 294.216 235.337 291.321C237.09 289.781 238.851 288.193 240.396 286.441C241.537 285.147 242.448 283.061 243.852 282.093C247.169 279.804 250.42 283.687 253.227 285.648C257.799 288.843 262.348 291.876 267.256 294.534C277.214 299.929 286.319 307.075 295.124 314.169C303.98 321.307 313.112 328.649 320.286 337.54C315.941 340.213 316.716 340.907 314.783 345.675C313.411 349.059 311.521 351.939 311.303 355.698C310.926 362.186 315.091 367.716 321.413 369.152C324.949 369.955 328.317 369.312 331.592 367.867C334.138 366.743 336.675 363.978 339.335 363.291C344.279 362.016 348.235 371.355 351.006 374.645C363.314 389.257 376.324 403.29 387.914 418.498C389.197 420.183 393.01 423.473 393.32 425.703C393.765 428.906 388.727 431.957 386.638 433.793C385.54 434.757 373.904 445.703 377.811 447.442C378.925 447.938 382.185 441.223 383 440.648C386.052 438.498 383.744 442.713 383.562 444.843C383.107 450.139 386.745 453.025 391.858 452.354C397.315 451.638 402.172 447.33 405.549 443.262C409.78 448.163 416.395 455.571 417.618 462.118C418.4 466.301 414.781 476.537 421.537 477.391C422.568 477.52 426.3 474.752 426.996 476.323C427.576 477.636 423.542 479.878 422.96 480.313C420.474 482.169 418.972 484.157 416.965 486.405C414.609 489.043 411.389 491.266 408.738 493.795C405.945 496.458 400.42 503.692 396.735 500.197C394.883 498.441 395.37 496.144 392.403 495.113C389.701 494.175 386.278 495.365 383.768 496.406C380.941 497.577 371.632 501.854 370.599 505.375C369.174 510.23 376.869 504.393 378.236 503.539C376.676 507.5 375.814 513.233 371.841 515.543C368.54 517.463 363.792 518.591 360.171 519.704ZM307.402 489.751C310.044 481.26 325.624 466.119 335.471 470.855C323.995 473.26 314.888 481.114 307.402 489.751ZM313.228 514.068C309.388 511.928 309.595 505.711 308.255 502.075C307.485 499.988 305.946 498.464 306.399 496.148C306.929 493.434 310.391 490.416 312.234 488.458C318.034 482.296 328.242 473.875 337.578 475.287C349.461 477.086 341.405 493.04 337.359 498.533C333.91 503.217 320.621 518.188 313.228 514.068ZM285.506 503.683C272.655 502.824 259.848 501.676 247.172 499.317C242.678 498.48 238.913 498.604 241.484 493.437C242.333 491.732 247.452 481.043 248.608 481.35C249.293 481.532 249.137 488.878 249.338 489.72C250.246 493.502 252.794 497.025 257.09 496.785C264.119 496.394 268.649 487.306 272.35 482.428C275.315 486.414 277.461 490.842 280.441 494.762C281.866 496.636 286.825 500.994 285.506 503.683ZM210.164 453.237C208.008 458.185 203.672 462.89 200.656 467.373C198.951 463.763 197.752 455.478 201.796 452.809C203.327 451.8 211.527 450.109 210.164 453.237ZM254.735 467.97C255.328 466.065 255.985 464.176 256.718 462.321C257.975 466.278 258.618 466.396 254.735 467.97ZM265.735 472.023C267.295 474.667 269.895 477.267 269.487 480.587C269.178 483.103 266.904 485.681 265.28 487.435C262.592 490.335 256.638 495.902 252.744 492.051C249.491 488.833 250.624 479.988 252.137 476.368C254.297 471.196 262.017 465.724 265.735 472.023ZM258.103 466.605C258.997 466.249 257.119 460.478 258.862 459.904C260.382 463.371 261.815 464.309 258.103 466.605ZM233.547 388.942C232.968 386.813 231.64 386.902 232.118 384.27C232.432 382.543 233.802 380.701 234.841 379.333C236.912 376.607 239.644 374.361 242.598 372.659C248.834 369.07 257.399 367.579 262.983 373.199C257.763 374.023 241.76 379.175 241.658 386.316C247.463 385.198 252.028 379.367 257.85 377.529C262.629 376.02 267.811 376.126 272.565 377.719C285.578 382.078 280.167 393.325 272.822 400.631C268.462 404.969 263.234 408.207 257.519 410.441C254.874 411.475 253.251 411.589 250.651 411.07C250.164 410.972 249.595 410.069 249.011 409.876C247.56 409.395 247.981 411.023 246.786 410.292C245.743 409.654 243.519 405.539 242.81 404.361C241.681 402.486 241.155 400.662 239.769 398.951C238.382 397.238 237.707 394.942 236.424 393.393C235.808 392.647 234.119 392.677 233.666 391.949C232.985 390.856 233.851 390.06 233.547 388.942ZM213.562 472.823C216.52 467.684 221.58 463.322 225.495 458.83C225.735 466.213 220.442 471.268 213.562 472.823ZM217.559 475.197C223.667 473.048 227.032 467.906 227.655 461.671C228.446 453.774 233.404 449.63 236.389 442.535C237.534 439.817 238.868 430.87 243.305 433.431C244.827 434.309 245.73 437.613 246.523 439.105C248.442 442.715 250.624 446.215 252.659 449.76C254.316 452.647 256.8 455.548 256.069 459.023C255.431 462.053 253.38 465.281 252.178 468.137C249.341 474.885 245.614 481.1 242.5 487.699C241.244 490.361 239.757 496.664 235.921 496.632C232.885 496.606 233.224 493.286 231.225 492.148C228.702 490.712 225.833 493.445 223.76 494.578C226.147 490.548 230.32 488.266 235.01 489.025C229.394 483.432 225.599 490.978 220.779 492.659C216.212 494.252 208.11 486.74 204.265 484.612C205.736 482.121 207.065 479.074 209.595 477.435C211.994 475.88 214.939 476.119 217.559 475.197ZM167.901 526.31C168.57 523.089 170.46 521.185 171.658 518.261C173.047 521.807 169.794 523.899 167.901 526.31ZM264.943 546.071C264.615 556.917 263.729 567.733 263.409 578.581C263.262 583.584 262.376 588.356 261.788 593.301C261.291 597.482 261.544 601.589 258.912 605.162C254.762 610.795 246.693 612.414 240.429 614.501C235.829 616.032 231.176 617.423 226.633 619.125C222.545 620.657 219.251 622.977 215.364 624.798C211.887 626.428 208.134 627.393 204.673 629.129C201.093 630.924 198.264 633.112 194.587 634.71C190.185 636.623 186.558 640.028 182.643 642.73C179.197 645.109 175.551 646.946 172.586 649.937C169.806 652.744 166.287 653.974 163.137 656.467C159.806 659.104 156.319 660.817 152.639 662.884C145.1 667.121 134.929 674.356 125.856 670.241C128.451 666.927 133.762 663.742 134.166 659.175C134.691 653.227 129.514 655.417 126.516 657.316C121.975 660.193 119.463 663.666 116.006 667.501C111.965 671.983 106.86 668.967 101.915 667.706C105.296 664.662 108.65 661.591 112.025 658.541C114.874 655.968 119.234 653.185 120.969 649.627C122.209 647.082 122.148 643.594 119.156 642.274C115.808 640.797 112.022 643.911 109.542 645.766C102.96 650.691 98.6245 656.937 94.3027 663.791C92.0037 667.435 90.9445 667.155 86.7152 666.427C82.2335 665.655 77.7507 664.832 73.2316 664.29C79.218 658.142 85.9083 651.482 90.6361 644.289C92.1678 641.958 94.1656 635.815 89.4991 635.25C87.576 635.017 83.7474 638.949 82.2636 640.009C75.7809 644.643 69.5484 650.488 65.2515 657.253C63.8331 659.486 63.3876 661.97 60.6411 662.155C57.0503 662.398 50.3776 658.971 46.9135 657.912C53.5343 649.566 60.1084 641.16 67.8434 633.8C74.9502 627.037 82.0393 622.123 90.3506 616.936C99.259 611.376 107.557 604.975 115.735 598.406C123.564 592.118 131.742 586.187 138.948 579.166C153.343 565.142 166.164 549.013 176.781 531.959C179.265 527.968 181.604 523.874 183.625 519.627C185.524 515.64 186.399 510.871 188.962 507.244C189.847 505.991 191.095 505.06 191.884 503.752C192.628 502.521 192.376 501.033 193.511 499.943C196.136 497.422 200.916 498.942 203.369 500.708C207.315 503.549 210.507 506.997 214.844 509.375C219.206 511.766 223.924 513.504 228.754 514.68C240.042 517.424 251.233 519.676 262.733 521.344C261.55 525.733 264.456 526.424 265.419 530.373C266.588 535.165 265.09 541.191 264.943 546.071ZM156.249 472.889C153.69 469.086 151.406 465.11 148.89 461.283C147.358 458.952 145.459 456.448 146.769 453.598C148.974 448.791 156.755 447.936 160.977 450.031C170.576 454.795 161.659 468.415 156.249 472.889ZM130.842 385.921C129.958 378.488 132.8 373.215 139.524 369.318C144.316 366.541 148.175 370.337 147.52 375.4C146.525 383.114 138.282 391.694 131.991 395.719C131.58 392.456 131.231 389.186 130.842 385.921ZM129.817 364.655C131.8 363.081 137.112 365.09 139.41 365.227C136.25 367.988 133.089 370.749 129.928 373.511C129.721 371.616 127.987 366.108 129.817 364.655ZM140.481 292.878C156.473 290.798 138.064 307.961 133.429 310.65C134.183 306.999 136.036 293.457 140.481 292.878ZM183.055 262.831C180.908 271.627 164.214 281.223 164.039 266.814C163.975 261.446 166.99 261.88 171.392 261.365C173.903 261.072 184.283 257.802 183.055 262.831ZM125.392 276.453C123.518 281.372 122.015 286.418 120.178 291.343C119.364 293.523 118.407 295.022 116.891 296.75C115.622 298.194 114.112 298.559 114.162 300.842C115.752 300.536 116.996 299.588 118.28 298.675C117.969 303.201 116.369 308.073 115.594 312.586C114.666 317.997 113.893 323.41 113.606 328.897C112.984 340.828 112.979 352.717 113.241 364.655C113.375 370.739 113.435 376.826 113.763 382.902C113.927 385.925 114.112 388.961 114.486 391.965C114.638 393.178 115.518 395.76 114.974 396.897C112.838 401.359 103.376 389.102 99.2673 390.901C99.8581 387.505 98.4947 388.248 96.2175 386.578C95.1147 385.768 94.3972 384.391 93.2467 383.67C92.8988 383.295 92.5156 382.961 92.0982 382.668C91.6226 382.02 91.1211 382.089 90.5936 382.875C85.9644 380.108 84.7682 374.21 82.2833 370.242C81.005 368.202 79.7704 367.884 79.5523 365.064C79.3633 362.606 79.733 360.102 79.6333 357.633C79.5201 354.849 79.3571 351.78 78.5762 349.084C77.6697 345.954 76.4226 346.209 73.9938 344.541C74.7425 344.214 75.2357 343.664 75.4745 342.892C74.6989 343.03 72.3417 343.992 71.7561 343.301C70.6045 341.943 73.322 341.763 74.0364 341.221C70.9887 339.868 71.6449 338.756 72.7446 336.277C73.0561 335.575 73.3531 334.526 73.6179 333.935C74.1963 332.642 74.5286 333.461 74.7196 331.856C74.9014 330.325 73.5442 327.314 73.1444 325.684C72.4736 322.948 72.1029 320.583 72.7051 317.733C73.1932 315.425 74.5057 313.335 74.5971 310.961C74.6231 310.295 73.6075 310.074 73.594 309.43C73.5743 308.49 74.4517 308.076 74.6802 307.208C75.2627 304.984 75 302.632 75.9969 300.521C76.894 298.626 78.706 296.173 79.9884 294.519C80.8773 293.372 83.0579 292.081 83.2968 290.568C83.4546 289.565 81.8939 289.68 81.9635 288.925C82.058 287.902 82.9157 287.571 83.1514 286.811C83.8004 284.725 83.9634 282.721 85.6404 281.122C87.7525 279.11 88.6705 279.953 88.7577 276.635C88.8003 275.016 87.5054 274.766 88.199 272.9C88.576 271.887 89.6881 271.288 90.3994 270.57C92.5115 268.44 93.9351 266.547 95.4387 263.915C96.7689 261.589 98.8903 260.236 100.253 258.227C102.027 255.609 99.3742 254.311 102.975 253.573C102.463 251.947 101.919 250.634 103.266 249.258C104.116 248.39 106.271 248.921 107.023 247.917C107.885 246.765 106.611 244.034 107.91 243.285C108.966 242.678 110.547 244.551 112.207 243.624C113.471 242.918 115.381 239.015 114.974 237.581C118.244 239.421 117.429 238.154 118.994 235.794C119.345 235.265 120.408 235.147 120.71 234.613C121.314 233.546 121.176 232.458 122.047 231.59C123.497 230.146 125.87 230.517 127.466 229.485C128.785 228.632 128.715 227.714 129.767 226.909C130.666 226.223 132.143 226.091 133.017 225.379C134.729 223.984 134.746 222.511 136.888 221.31C139.425 219.889 141.672 218.679 143.979 216.794C145.484 215.565 146.912 213.387 148.672 212.577C151.106 211.455 153.002 211.376 155.383 209.777C157.104 208.62 158.731 206.712 160.42 205.738C161.695 205.004 162.589 205.162 164.195 204.707C167.086 203.887 167.79 201.163 170.148 200.054C171.767 199.292 174.124 199.99 175.902 199.59C181.434 198.348 186.899 195.669 192.451 194.185C199.227 192.374 206.052 190.788 212.88 189.188C206.605 197.693 198.613 205.367 190.507 212.121C187.846 214.339 173.266 224.448 181.125 228.764C184.28 230.497 191.133 224.901 193.68 223.533C198.809 220.778 204.121 218.573 209.493 216.345C218.179 212.742 229.491 206.334 239.144 206.849C233.268 214.059 225.933 219.846 219.212 226.214C213.036 232.067 203.73 237.556 206.642 247.136C197.967 244.928 190.175 242.32 181.155 242.898C177.115 243.157 173.072 242.67 169.05 243.237C164.677 243.855 160.559 245.318 156.356 246.603C153.031 247.618 149.357 247.698 146.298 249.387C144.82 250.203 142.992 251.369 141.664 252.383C139.893 253.734 139.491 254.628 138.1 256.409C133.14 262.76 128.34 268.715 125.392 276.453ZM98.259 396.672C97.988 395.572 97.7419 394.569 97.4314 393.314C100.192 395.014 100.192 395.014 98.259 396.672ZM77.3925 361.658C77.0519 362.129 75.622 362.28 75.2066 361.873C74.6895 361.368 76.0488 359.402 76.2668 358.984C76.8058 359.398 78.0456 360.752 77.3925 361.658ZM71.4809 348.915C71.8464 347.573 72.2129 346.231 72.5785 344.888C73.027 346.132 75.0509 347.508 75.0955 348.694C75.1236 349.48 71.8807 349.089 71.4809 348.915ZM72.6543 350.757C75.8224 352.843 76.1537 355.304 76.2481 358.903C72.457 357.648 73.0011 353.977 72.6543 350.757ZM127.749 208.697C127.43 209.563 126.072 212.26 125.078 210.373C124.76 209.77 127.088 208.946 127.749 208.697ZM126.84 205.757C127.623 205.052 129.201 205.93 130.087 205.359C130.708 204.959 130.502 204.554 130.794 204.317C130.852 204.269 131.696 202.561 132.042 202.173C132.653 201.491 133.985 201.066 134.727 200.451C136.802 198.731 137.973 196.47 139.279 194.17C140.836 191.423 141.333 191.105 143.845 189.848C145.577 188.981 146.919 187.92 148.328 186.447C149.952 184.75 149.833 183.535 151.166 181.68C151.825 180.764 152.773 180.651 153.54 179.913C154.46 179.03 154.927 177.794 155.778 176.902C156.145 176.517 157.325 176.518 157.547 176.187C157.831 175.77 158.052 174.099 158.318 173.791C158.825 174.477 159.334 175.163 159.841 175.849C161.843 172.328 163.304 169.419 166.652 167.076C170.168 164.615 173.203 161.015 176.837 158.812C177.654 158.317 179.318 158.108 179.942 157.379C180.997 156.144 180.083 155.046 180.853 153.997C181.726 152.808 183.418 153.77 184.528 153.258C185.933 152.61 186.335 150.715 188.143 150.924C182.196 157.961 182.27 168.909 181.955 177.697C181.818 181.484 184.203 183.393 180.682 186.172C177.687 188.536 173.464 187.835 169.923 189.391C165.476 191.344 160.72 192.384 156.184 194.087C151.491 195.847 147.718 198.931 143.202 200.971C139.22 202.768 136.5 205.325 132.857 207.545C131.503 208.37 129.406 209.568 127.791 208.582C126.78 207.963 125.52 206.948 126.84 205.757ZM194.015 146.758C194.273 145.758 199.35 143.131 200.599 142.274C202.473 140.985 205.248 137.838 207.34 139.088C208.065 136.185 210.894 132.954 213.393 132.339C216.166 131.655 220.922 129.277 223.65 127.202C224.447 126.596 224.709 125.71 225.647 125.141C227.279 124.151 228.899 124.691 230.472 123.341C230.712 123.135 232.888 119.543 232.974 119.577C233.085 119.963 233.187 120.352 233.275 120.744C234.926 119.829 236.397 119.1 237.426 117.932C237.659 117.667 236.146 116.978 236.624 116.453C237.209 115.811 238.514 116.529 239.105 115.919C237.267 125.043 238.635 136.788 247.892 141.413C236.884 142.603 226.132 139.293 214.988 141.326C209.654 142.3 204.231 143.897 199.379 146.35C196.406 147.854 192.604 153.239 189.645 150.625C190.819 149.059 192.611 148.086 194.015 146.758ZM247.427 120.508C251.544 115.473 257.788 113.481 264.076 115.284C271.438 117.396 268.333 122.54 267.221 128.252C265.097 125.137 260.495 122.047 256.576 121.954C251.02 121.822 253.12 126.451 256.456 128.109C259.489 129.616 264.691 130.036 266.862 132.776C268.975 135.443 268.165 139.803 268.506 142.948C266.863 142.704 265.22 142.46 263.577 142.215C264.956 134.876 258.887 134.521 253.229 132.452C247.511 130.362 242.743 126.239 247.427 120.508ZM265.866 102.436V109.247C263.578 107.942 261.288 106.638 258.998 105.333C261.288 104.367 263.578 103.402 265.866 102.436ZM284.267 156.859C291.91 158.93 299.501 161.122 306.849 163.98C309.517 165.018 312.44 165.385 315.055 166.557C317.545 167.672 317.919 167.556 317.033 169.738C314.552 175.852 308.675 174.796 303.526 173.861C295.466 172.396 287.573 170.367 279.614 168.457C271.834 166.591 263.89 165.368 256.228 163.03C248.365 160.631 240.703 158.36 232.615 156.776C230.255 156.313 211.583 154.601 211.725 152.649C223.484 151.122 235.591 152.626 247.403 152.785C259.678 152.951 272.36 153.631 284.267 156.859ZM273.891 133.21C274.037 129.006 274.096 124.789 274.618 120.61C278.116 124.928 281.274 126.221 285.684 122.173C289.906 118.299 290.848 116.279 296.201 119.921C300.841 123.08 305.232 122.935 310.16 120.17C313.166 118.483 317.997 111.591 321.157 113.009C322.662 113.686 323.766 116.412 325.286 117.415C327.194 118.671 330.127 119.543 332.35 120.03C337.602 121.181 340.73 117.803 344.026 114.191C348.806 108.952 348.666 111.995 353.098 115.627C358.04 119.679 362.173 117.699 366.649 114.242C369.375 122.23 370.395 130.955 371.166 139.33C371.425 142.157 372.396 146.173 369.856 148.172C368.066 149.582 364.267 149.638 362.11 150.417C354.405 153.203 347.001 157.155 340.557 162.215C338.046 164.187 335.857 166.601 332.426 166.152C329.156 165.724 325.979 162.986 323.349 161.179C320.495 159.219 317.607 156.993 314.272 155.901C312.319 155.261 309.19 155.492 307.481 154.319C304.303 152.138 308.043 146.416 307.251 142.575C306.652 139.659 304.974 133.579 300.958 135.288C294.981 137.831 298.459 147.759 301.746 150.858C295.022 149.664 287.578 147.92 281.093 145.704C276.084 143.992 273.711 138.337 273.891 133.21ZM386.657 153.684C400.46 149.809 413.375 147.195 427.739 146.49C434.098 146.177 440.253 146.374 446.541 146.432C450.16 146.465 452.918 143.546 450.027 140.188C446.025 135.538 433.817 137.308 428.408 137.099C413.91 136.539 400.617 138.187 386.886 142.967C388.338 140.292 391.826 139.945 394.217 138.562C397.149 136.863 399.143 134.067 400.396 130.963C403.656 122.89 400.375 115.283 396.965 107.909C403.663 109.711 410.592 113.657 417.326 114.659C418.739 114.868 419.644 114.733 420.893 115.248C421.66 115.563 421.902 116.653 422.852 116.891C423.311 117.006 424.413 115.969 424.933 116.116C426.984 116.695 425.362 116.849 426.659 117.689C427.688 118.355 427.604 119.212 429.492 118.898C430.329 118.759 431.237 117.464 431.678 117.429C432.24 117.383 432.11 116.7 432.97 116.899C434.534 117.263 434.396 119.278 434.917 120.269C435.473 121.325 434.683 122.729 436.371 123.307C437.632 123.739 437.949 122.407 439.022 122.503C439.673 122.561 441.025 123.499 441.6 124.071C443.453 125.912 445.991 127.946 448.483 129.144C448.238 128.898 449.658 128.305 449.318 128.165C449.09 128.073 450.581 128.432 450.558 128.427C451.997 128.754 452.757 130.964 453.484 131.769C454.822 133.246 456.9 134.805 458.774 135.456C462.015 136.584 461.916 135.236 463.099 139.087C465.403 135.465 466.287 141.532 469.144 142.2C470.624 142.546 470.452 141.912 471.796 142.686C472.72 143.217 473.335 144.844 474.031 145.628C474.33 144.497 474.628 143.364 474.926 142.233C476.984 146.132 481.427 152.316 486.299 151.197C486.299 152.262 485.86 153.534 486.684 154.442C487.259 155.077 488.191 154.356 488.641 154.724C489.034 155.047 489.974 156.329 490.275 156.54C490.868 156.956 491.944 157.259 492.459 157.674C492.913 158.039 493.138 159.781 493.641 160.411C494.587 161.595 496.223 161.83 496.996 163.249C497.173 161.849 497.349 160.448 497.525 159.049C499.059 160.234 499.191 161.155 499.568 162.89C500.105 165.36 499.393 164.781 501.097 165.823C502.771 166.849 503.644 166.734 505.179 168.513C506.683 170.257 506.697 171.331 508.868 169.515C509.272 170.858 509.402 172.597 510.48 173.627C511.294 174.405 514.666 174.438 514.987 176.277C508.653 170.932 512.821 179.049 514.991 176.29C515.449 179.244 517.61 180.198 520.079 182.301C522.381 184.261 522.758 184.119 523.544 187.412C523.526 187.339 524.701 188.068 524.786 188.213C522.543 188.533 526.02 191.04 526.608 191.498C527.037 191.833 527.596 191.034 528.308 191.575C529.123 192.194 529.787 193.603 530.45 194.452C532.248 196.753 533.578 198.731 535.47 200.603C537.511 202.623 538.504 205.176 540.464 207.537C542.639 210.159 543.815 213.174 545.634 216.021C547.362 218.728 549.658 220.901 551.66 223.379C554.851 227.324 555.937 236.012 561.885 236.241C561.537 236.601 562.022 239.294 562.079 239.791C562.36 242.236 562.173 244.589 563.62 246.803C563.951 244.277 565.273 245.251 566.421 246.578C568.331 248.786 566.654 248.23 566.755 250.467C566.877 253.18 567.185 251.082 568.219 253.45C569.028 255.305 569.471 256.508 569.905 258.567C566.545 258.833 565.006 256.088 563.764 253.427C563.245 252.314 563.065 250.485 562.146 249.615C561.168 248.689 559.824 248.617 558.819 247.584C556.89 245.599 556.054 242.504 553.78 240.572C551.211 238.39 550.642 237.359 548.518 234.749C546.169 231.863 542.925 229.837 540.461 227.046C537.993 224.249 538.193 225.776 535.093 224.763C531.796 223.686 526.465 213.32 522.311 217.312C522.475 214.701 518.564 212.244 516.587 211.297C515.732 210.889 514.737 211.259 513.882 210.646C512.954 209.981 512.888 208.698 511.952 207.9C511.952 207.9 510.518 208.248 510.227 208.102C509.635 207.801 509.63 206.739 509.107 206.39C507.66 205.423 505.934 204.408 504.398 203.584C500.664 201.582 497.364 199.116 493.761 196.705C490.674 194.639 486.938 190.908 483.37 189.819C480.254 188.868 478.295 189.352 475.743 187.447C474.353 186.41 474.762 186.062 472.529 185.417C470.402 184.803 469.208 185.118 468.081 182.863C466.11 178.917 467.354 171.216 466.973 166.791C466.568 162.095 466.087 157.282 464.863 152.716C463.415 147.319 461.502 144.498 455.713 145.769C444.243 148.29 432.912 150.688 421.39 152.902C398.43 157.312 375.864 164.51 353.409 170.9C351.699 171.387 342.157 173.572 344.106 168.638C345.004 166.362 351.044 165.514 353.065 164.799C364.164 160.87 375.313 156.868 386.657 153.684ZM382.8 143.641C381.123 144.28 379.447 144.919 377.77 145.56V140.897C379.447 141.811 381.123 142.726 382.8 143.641ZM375.831 118.986C377.288 120.177 380.251 117.311 381.489 116.73C383.606 115.738 386.3 114.887 388.665 115.091C393.025 115.468 396.214 119.761 395.415 124.113C394.063 131.477 383.571 134.96 377.786 137.838C377.601 135.229 376.756 132.091 378.586 129.834C380.175 127.874 383.256 128.017 384.722 125.932C388.411 120.692 378.413 120.217 376.178 124.384C375.296 121.721 374.415 119.059 373.533 116.396C375.661 116.044 374.726 118.084 375.831 118.986ZM386.151 104.572C384.069 105.918 381.987 107.264 379.906 108.609C378.874 103.95 382.391 103.337 386.151 104.572ZM575.839 266.723C573.113 268.024 572.431 264.917 570.471 264.783C572.787 263.359 572.787 263.359 575.839 266.723ZM586.926 334.567C587.266 339.032 587 343.55 587.595 347.998C588.048 351.382 589.419 354.53 589.565 357.952C589.885 365.447 587.354 373.079 582.243 378.574C577.408 383.771 570.491 388.244 563.964 390.429C561.024 391.412 557.954 393.593 555.097 394.4C551.938 395.293 548.936 393.35 546.329 396.834C544.591 381.892 545.861 366.279 545.724 351.242C545.587 336.174 545.749 321.1 543.2 306.193C540.93 292.917 536.454 277.985 528.205 267.124C524.854 262.714 520.729 259.101 516.378 255.72C514.12 253.965 511.862 252.09 509.348 250.704C505.478 248.572 502.182 248.867 497.973 248.259C491.95 247.389 486.351 246.655 480.305 248.351C474.677 249.93 468.479 251.729 463.437 254.473C458.416 257.207 452.584 258.333 447.371 260.782C443.825 262.448 436.459 268.013 432.524 267.011C428.716 266.04 423.078 259.576 420.646 256.681C417.538 252.98 414.967 248.691 412.21 244.71C411.242 243.312 409.269 241.152 409.017 239.357C408.58 236.242 409.828 237.26 412.804 237.608C420.457 238.506 427.654 239.926 434.988 242.335C438.638 243.533 445.775 248.382 449.425 245.476C454.998 241.04 446.53 233.415 443.429 230.853C438.144 226.489 432 223.247 426.367 219.369C420.382 215.247 412.469 210.86 408.617 204.513C419.864 207.834 431.1 211.636 442.018 215.917C447.014 217.875 451.952 219.944 456.643 222.548C459.279 224.01 464.603 227.965 467.777 226.071C474.676 221.952 458.831 209.992 456.545 207.548C452.992 203.749 449.511 199.988 445.607 196.541C442.973 194.217 438.835 192.582 437.61 189.153C441.982 190.735 445.517 193.835 449.611 195.942C451.754 197.046 453.71 197.68 456.077 198.018C458.601 198.38 458.902 198.782 460.89 199.785C462.438 200.567 464.029 201.613 465.768 202.145C467.006 202.524 469.17 202.59 470.253 203.292C470.807 204.082 471.378 204.858 471.969 205.621C472.629 205.815 473.279 206.039 473.92 206.293C474.88 207.15 475.45 208.33 476.384 209.214C483.165 215.626 492.234 220.215 499.836 225.587C507.028 230.668 514.66 235.266 521.568 240.812C529.517 247.196 537.767 254.057 544.528 261.712C548.349 266.038 551.49 270.943 554.7 275.727C557.024 279.19 560.404 282.064 562.412 285.636C566.792 293.422 570.427 301.84 575.142 309.501C579.946 317.308 586.205 325.064 586.926 334.567ZM522.311 379.748C523.621 374.344 531.011 368.034 535.734 365.651C533.354 371.539 527.012 375.555 522.311 379.748ZM534.497 398.599C530.469 406.957 512.757 407.913 515.16 395.545C516.337 389.485 521.335 385.767 525.625 381.801C527.608 379.969 532.465 373.414 535.535 374.47C535.391 379.183 535.114 383.916 535.124 388.63C535.13 391.777 535.923 395.642 534.497 398.599ZM529.378 302.274C531.012 305.945 532.64 309.001 529.608 312.285C528.24 313.767 523.782 317.009 521.765 316.289C515.291 313.98 527.634 303.926 529.378 302.274ZM490.219 269.616C491.778 269.531 493.292 269.763 494.833 269.668C496.368 269.572 496.53 269.3 497.953 269.494C498.103 269.713 498.253 269.931 498.403 270.149C498.597 271.613 499.367 271.772 500.71 270.627C502.578 271.043 503.793 271.32 505.579 272.329C500.758 275.806 494.89 279.847 488.98 281.014C479.638 282.858 482.219 270.057 490.219 269.616ZM347.008 347.788C346.04 349.736 343.254 344.868 342.564 343.96C343.85 343.956 347.988 345.822 347.008 347.788ZM422.068 296.493C429.326 292.258 437.946 288.539 445.741 285.386C447.112 291.99 440.427 300.516 436.309 305.035C432.98 308.689 428.966 312.48 424.452 314.583C419.571 316.857 414.237 315.858 414.474 309.477C414.561 307.145 415.092 303.394 416.041 301.262C417.265 298.515 419.579 297.944 422.068 296.493ZM323.957 176.364C325.037 176.301 336.772 174.783 336.71 176.244C336.525 180.632 325.135 177.186 323.957 176.364ZM240.975 261.102C247.173 253.454 257.179 245.2 257.325 234.511C257.541 218.784 240.087 226.631 231.312 227.285C235.952 222.726 259.269 203.599 245.477 196.805C241.513 194.853 235.878 196.761 231.9 197.783C224.842 199.599 218.28 202.742 211.346 204.93C216.301 199.656 224.861 193.662 224.581 185.674C224.238 175.952 216.257 178.302 209.356 179.729C206.704 180.278 194.857 184.991 192.631 181.791C191.816 180.619 193.135 179.129 193.414 178.086C193.908 176.239 193.755 175.595 193.772 173.709C193.806 169.903 196.334 165.017 194.272 161.477C193.801 162.282 193.397 163.118 193.061 163.988C192.381 161.928 192.838 159.744 192.158 157.684C209.387 162.09 226.914 164.502 244.251 168.263C253.028 170.167 261.288 173.446 270.185 174.922C279.158 176.409 287.975 178.686 296.964 180.104C305.166 181.398 313.024 183.552 321.146 185.205C329.064 186.815 337.184 183.285 344.912 181.498C362.221 177.495 379.524 173.394 396.856 169.509C416.856 165.025 437.661 161.192 456.805 153.713C457.176 163.68 457.973 173.629 459.191 183.527C450.737 179.531 438.19 174.319 429.643 181.471C426.222 184.332 425.168 189.272 426.52 193.474C427.992 198.047 432.499 200.171 435.473 203.614C426.422 201.294 403.071 184.933 398.915 201.47C395.979 213.15 410.299 220.695 417.3 227.269C410.347 225.908 401.036 220.349 396.953 229.283C393.425 237.006 397.675 245.411 402.028 251.781C404.387 255.232 407.04 258.481 409.548 261.825C410.874 263.594 412.169 265.387 413.562 267.104C414.96 268.826 417.596 270.629 418.576 272.482C420.548 276.219 416.568 276.448 413.474 277.798C409.61 279.483 406.292 282.314 402.759 284.57C394.668 289.736 387.596 294.534 378.035 296.186C368.191 297.885 358.712 299.66 348.998 302.03C339.314 304.393 331.409 306.664 321.51 303.61C316.997 302.217 313.321 300.98 308.534 301.241C303.506 301.517 300.566 301.256 296.432 298.141C278.644 284.744 259.335 273.75 240.975 261.102ZM208.905 247.651C215.78 244.202 222.701 240.735 229.803 237.771C235.681 235.317 244.607 232.458 251.042 233.533C249.228 238.193 245.918 242.017 242.367 245.448C239.227 248.483 235.304 253.062 231.505 255.18C228.054 257.103 224.04 254.058 220.637 252.782C216.898 251.381 211.752 250.727 208.905 247.651ZM210.633 265.054C214.059 263.63 221.422 268.407 224.538 269.649C230.662 272.091 236.819 274.642 242.216 278.494C235.626 286.109 228.163 293.072 219.295 297.964C213.461 301.182 203.627 304.873 198.123 299.03C191.209 291.687 199.521 276.724 204.416 270.432C204.578 271.508 204.741 272.584 204.904 273.661C206.466 271.16 207.658 266.291 210.633 265.054ZM336.409 330.233C332.134 331.133 330.682 330.321 327.86 327.043C325.953 324.827 324.079 322.527 321.928 320.534C319.733 318.502 314.313 313.6 321.219 316.422C327.514 318.994 332.906 320.281 339.832 319.273C347.751 318.121 355.134 314.773 362.942 313.078C358.661 316.823 354.412 320.606 350.124 324.341C345.593 328.287 342.165 329.021 336.409 330.233ZM337.386 360.356C328.019 367.405 309.162 366.642 315.509 351.133C316.473 348.777 317.822 346.561 319.383 344.554C319.903 343.884 320.829 342.495 321.571 342.045C323.642 340.789 323.068 340.637 325.06 342.732C326.778 344.539 340.208 359.306 337.386 360.356ZM334.609 333.407C335.467 333.129 339.082 331.033 339.906 332.192C340.74 333.367 333.652 337.429 334.609 333.407ZM402.798 440.911C400.692 445.95 383.837 453.245 386.977 443.087C388.368 438.587 389.679 435.181 394.926 434.839C397.954 434.642 404.653 436.474 402.798 440.911ZM433.033 372.621C435.808 368.581 444.971 363.117 448.883 369.143C450.768 372.045 446.194 373.532 443.428 372.786C441.943 372.384 440.728 371.497 439.113 371.43C437.037 371.345 435.008 372.973 433.033 372.621ZM440.389 376.631C438.502 378.541 427.123 388.117 425.28 386.64C428.996 381.328 433.263 375.395 440.389 376.631ZM421.804 473.529C417.853 473.752 419.826 467.798 420.208 465.417C421.164 467.075 426.194 473.28 421.804 473.529ZM431.844 462.856C430.566 460.581 427.122 457.195 427.9 454.269C428.496 452.032 433.872 449.023 436.123 450.307C439.113 452.013 434.779 463.233 431.844 462.856ZM525.606 439.004C523.916 444.828 522.164 443.325 516.864 444.454C511.546 445.585 507.87 450.101 503.189 452.522C504.815 449.084 505.824 444.895 508.546 442.106C509.176 441.462 513.034 440.19 510.836 438.697C508.914 437.393 506.151 441.626 505.326 442.779C501.271 448.457 498.435 455.389 496.094 461.922C494.942 465.13 494.02 468.398 493.475 471.767C492.989 474.77 493.513 477.911 493.018 480.836C492.221 485.545 485.824 485.569 481.977 486.784C478.494 487.882 475.027 489.074 471.412 489.667C468.278 490.18 465.026 489.245 461.989 489.862C458.7 490.53 457.223 492.482 453.484 492.04C450.437 491.682 447.585 490.28 444.496 490.14C441.605 490.01 438.722 491.009 435.848 490.196C432.948 489.374 433.088 489.056 433.748 486.206C434.16 486.975 434.573 487.744 434.986 488.512C436.142 487.606 436.942 484.843 437.65 483.545C438.749 481.535 439.644 480.84 439.237 478.336C438.636 474.639 435.303 472.008 434.547 468.492C433.758 464.822 436.471 461.822 438.075 458.758C440.267 454.565 440.238 451.456 438.401 447.119C439.786 447.485 441.171 447.851 442.557 448.218C440.658 444.095 434.218 445.766 430.989 446.987C429.366 447.6 426.793 450.012 425.047 449.951C422.647 449.867 421.396 446.712 420.365 444.974C417.38 439.948 413.973 434.983 410.443 430.316C409.472 429.033 408.2 428.208 408.535 426.744C408.821 425.504 411.604 423.743 412.507 422.978C415.893 420.115 420.203 418.528 423.383 415.515C428.19 410.961 433.733 407.698 438.647 403.233C443.767 398.583 449.042 394.311 454.377 389.917C459.781 385.466 464.462 380.221 469.827 375.724C471.217 378.243 473.91 387.262 476.989 387.961C480.58 388.774 480.473 384.525 480.295 381.969C480.04 378.325 478.017 374.786 477.792 371.308C477.55 367.589 481.129 365.926 483.829 363.775C488.001 360.452 497.233 352.882 492.27 346.652C487.995 341.286 474.093 351.575 470.262 354.669C467.005 357.298 464.489 359.675 460.823 361.75C458.244 363.207 453.919 368.812 450.863 368.295C447.228 367.68 445.808 363.71 441.361 363.841C437.015 363.967 433.324 367.098 430.629 370.24C424.537 377.343 422.444 386.848 416.892 394.252C414.155 397.903 410.605 400.917 407.636 404.371C404.376 408.162 403.683 412.53 400.468 416.24C391.268 403.983 381.244 392.379 371.543 380.524C366.697 374.605 361.953 368.615 357.212 362.612C355.435 360.362 353.431 358.252 351.804 355.889C349.575 352.652 349.976 350.053 349.101 346.444C348.714 344.845 346.897 342.929 347.383 341.4C348.037 339.345 352.63 337.732 354.287 336.893C361.05 333.459 367.184 329.168 373.491 324.974C385.169 317.208 396.983 309.925 409.404 303.292C409.19 306.15 407.33 309.111 408.579 311.979C409.161 310.329 410.082 302.981 412.284 302.665C411.862 302.725 412.209 312.089 412.55 313.425C413.566 317.415 416.515 320.143 420.736 320.116C428.772 320.064 435.975 311.322 440.436 305.53C443.456 301.609 446.357 297.049 447.42 292.142C448.377 287.736 447.325 284.671 451.905 282.434C461.303 277.843 470.777 274.103 480.828 271.669C480.378 276.001 479.122 281.333 483.059 284.449C487.405 287.887 493.091 284.823 497.182 282.548C501.235 280.295 507.484 274.105 512.244 275.903C516.926 277.672 520.185 283.544 522.806 287.443C525.115 290.879 527.629 293.358 524.954 297.188C521.956 301.481 520.005 305.672 517.603 310.335C516.68 312.127 515.799 313.296 516.452 315.133C516.663 315.729 519.07 319.278 519.724 319.786C523.894 323.032 529.525 316.859 532.502 314.515C533.552 324.606 533.787 334.652 534.21 344.774C534.521 352.188 537.391 359.486 531.307 364.906C525.225 370.323 520.148 375.885 516.441 383.221C514.461 387.14 512.685 391.162 510.543 394.999C509.112 397.563 506.094 401.323 507.941 404.341C509.89 402.491 510.47 399.679 512.094 397.593C513.067 401.922 514.047 406.724 518.625 408.558C523.893 410.669 529.128 407.017 533.794 404.984C532.121 416.556 528.858 427.8 525.606 439.004ZM520.221 452.305C516.606 460.032 513.341 469.348 506.665 475.038C505.198 476.287 498.97 481.164 496.6 480.347C494.588 479.653 495.695 475.588 496.046 473.846C497.825 465.003 500.902 459.439 508.072 453.798C511.039 451.463 514.849 448.479 518.676 447.903C522.795 447.282 521.609 449.336 520.221 452.305ZM622.195 635.711C612.822 622.965 599.574 613.059 587.054 603.484C581.383 599.146 575.134 595.893 569.404 591.555C562.927 586.65 556.348 581.918 549.092 578.221C535.336 571.212 520.329 566.326 507.347 558.037C501.016 553.994 494.09 550.088 488.138 545.55C485.523 543.555 483.214 541.006 480.851 538.723C478.656 536.601 473.943 533.521 473.07 530.416C476.723 529.818 478.8 526.273 482.061 525.912C483.135 525.792 489.865 527.572 488.945 524.308C491.386 524.247 491.67 524.21 493.716 523.676C494.563 523.455 495.567 523.801 496.424 523.497C497.735 523.035 498.626 521.699 499.95 521.186C500.891 520.822 504.385 521.229 504.915 520.776C506.361 519.54 504.825 519.649 503.962 518.106C506.773 518.034 508.703 519.455 511.521 517.945C512.379 517.485 513.105 516.425 513.937 515.876C515.411 514.901 515.944 516.412 516.954 514.389C517.899 517.18 517.873 516.408 520.151 515.587C522.42 514.769 524.059 514.179 526.643 513.974C532.817 513.486 539.013 514.235 545.158 513.796C547.406 513.635 549.327 513.125 551.561 513.419C553.527 513.678 552.935 515.046 554.57 513.203C554.95 512.775 553.722 511.603 554.31 510.987C554.57 510.715 555.416 510.906 555.737 510.767C558.61 509.513 558.623 511.265 559.133 513.548C560.818 513.153 562.537 512.796 564.001 511.807C563.261 511.147 562.024 510.419 562.738 509.213C565.168 510.134 566.757 509.709 565.542 512.377C567.987 513.184 568.444 512.132 570.64 511.901C571.939 511.765 573.752 512.571 574.834 511.534C576.016 510.401 574.152 509.171 576.322 508.197C576.768 508.424 577.097 508.766 577.313 509.222C578.485 509.576 578.274 510.038 576.681 510.606C580.949 512.818 579.946 510.345 581.739 507.728C582.153 507.126 584.007 505.252 584.852 506.157C586.133 507.529 583.517 507.965 584.078 509.33C585.05 511.695 588.441 508.664 589.482 507.465C590.27 506.56 590.591 504.825 591.44 504.148C592.619 503.209 594.316 504.661 595.792 504.401C602.537 503.218 608.906 494.15 603.825 488.08C602.46 486.448 601.304 486.773 599.677 485.743C598.068 484.725 597.166 482.965 595.875 481.511C592.928 478.193 589.32 475.707 585.2 474.118C575.642 470.431 565.344 467.741 555.308 465.763C550.66 464.846 545.712 463.444 540.954 463.455C538.15 463.46 533.928 465.64 531.307 464.596C526.211 462.565 533.692 452.171 534.927 448.813C538.553 438.95 541.289 428.433 543.083 418.078C543.434 416.052 543.299 413.427 544.029 411.496C544.867 409.276 545.047 409.59 546.84 409.409C550.08 409.082 553.623 410.781 556.997 410.194C560.736 409.543 564.777 409.846 568.552 408.689C570.287 408.158 571.896 407.58 573.038 406.116C573.398 405.657 572.997 405.257 573.225 404.935C573.295 404.834 574.586 403.442 574.628 403.362C574.615 402.642 574.677 401.927 574.816 401.219C576.124 402.305 575.479 404.583 577.684 404.636C578.077 402.207 578.081 401.718 579.675 400.351C579.554 400.456 580.876 399.333 580.706 399.453C580.786 399.02 580.945 398.616 581.182 398.242C581.928 397.882 582.715 397.691 583.543 397.669C585.266 395.897 584.551 394.953 584.551 392.568C585.941 393.29 587.331 394.012 588.722 394.734C589.058 387.669 593.36 383.8 596.219 378.074C597.437 375.634 598.678 373.727 598.969 370.784C599.137 369.086 598.699 367.588 599.402 365.988C600.039 364.536 601.466 363.753 602.062 362.172C603.235 359.059 602.36 355.086 602.424 351.854C602.514 347.372 602.961 342.905 603.108 338.425C603.395 329.63 602.511 320.592 601.195 311.899C600.566 307.741 599.513 303.706 598.686 299.592C598.006 296.211 596.379 293.039 595.797 289.893C595.555 288.586 595.929 287.413 595.535 285.967C595.015 284.066 594.147 282.198 593.501 280.331C591.994 275.972 590.503 271.619 588.807 267.327C585.52 259.009 581.673 250.94 578.018 242.782C574.502 234.937 571.59 226.849 567.036 219.524C562.55 212.308 557.72 205.215 552.777 198.308C547.627 191.116 541.117 184.936 536.123 177.677C526.746 164.047 513.668 152.816 499.985 143.543C471.75 124.404 441.238 105.296 407.381 98.7347C402.278 97.7464 397.11 97.0605 391.91 96.9327C388.683 96.8526 383.337 98.4125 380.282 97.3203C376.86 96.0971 377.173 92.2541 376.317 89.2393C375.215 85.3641 372.731 82.8253 369.909 80.0859C366.939 77.2021 364.244 73.834 360.54 71.873C356.786 69.8871 352.358 69.144 348.199 68.5434C344.486 68.0061 338.938 68.508 335.546 66.89C332.456 65.4153 333.982 63.8804 336.875 65.1431C337.087 63.8669 337.258 63.0428 338.076 62.0566C338.486 61.5609 340.426 60.8656 340.473 60.4032C340.528 59.8618 338.901 58.3196 338.668 57.6212C338.168 56.1175 338.452 54.0349 339.046 52.6236C341.963 55.2165 342.808 56.3648 346.065 53.8863C347.44 52.8398 347.862 52.3784 349.455 51.8504C349.887 51.707 350.856 52.1497 351.233 51.9014C352.672 50.9536 351.348 51.177 352.032 50.0568C351.86 50.3394 353.069 47.3621 353.011 47.9846C353.158 46.3987 353.627 46.8861 352.67 44.9376C350.794 41.1257 346.019 40.9699 348.453 36.6197C349.41 34.9081 350.253 35.0785 350.523 32.5969C350.668 31.2625 350.488 29.7328 350.482 28.3756C350.47 25.5999 350.993 23.6565 348.392 22.2432C345.892 20.8839 343.586 22.3752 342.571 19.004C341.508 15.4665 342.579 10.9313 338.747 8.50892C335.946 6.73913 331.903 8.25223 328.809 7.38656C325.708 6.51986 322.856 3.34713 319.709 5.78305C317.473 7.51439 316.287 11.771 312.074 9.46915C310.172 8.43098 309.126 4.94545 307.926 2.99068C306.016 -0.124887 304.484 -1.25036 301.544 1.78415C299.732 3.65578 295.911 8.2117 295.677 10.8025C295.421 13.6624 297.916 14.8575 294.783 16.5493C291.667 18.2329 289.919 16.9983 287.389 20.4152C284.88 23.8051 286.822 25.6778 283.916 28.9212C280.282 32.9752 278.349 34.7252 278.4 40.1873C278.435 43.9337 275.125 47.1698 277.056 50.7239C279.22 54.7073 285.536 56.3638 289.365 57.9849C288.087 60.3471 286.333 61.8612 287.825 64.293C289.177 66.4951 292.998 66.9523 295.367 66.5522C296.96 66.2841 297.017 66.5252 298.271 65.4049C299.093 64.6713 297.966 63.7557 299.658 63.3494C301.458 62.915 304.334 66.4442 305.503 67.3264C302.89 70.7174 295.714 71.3513 291.917 73.0702C289.604 74.1188 287.477 75.6693 285.121 76.6066C282.984 77.4567 280.383 77.2593 278.445 78.5749C275.099 80.8466 273.706 86.475 271.655 89.7839C269.333 93.5292 267.082 95.2689 262.627 96.0462C257.07 97.0158 252.595 97.4055 247.412 99.8258C241.083 102.781 234.844 105.902 228.628 109.088C218.602 114.227 209.288 119.502 199.978 125.718C190.238 132.221 180.764 139.009 171.366 145.805C162.07 152.526 154.266 160.793 146.191 168.921C139.664 175.491 133.936 182.583 127.434 189.151C119.758 196.906 114.112 206.695 106.995 214.922C103.101 219.423 99.3753 223.849 96.9319 229.151C94.9517 233.449 91.5084 237.666 89.2094 242.176C86.2718 247.941 83.492 253.614 80.194 259.189C78.841 261.476 77.2325 263.439 75.8048 265.622C73.9751 268.419 74.0831 271.12 73.5909 274.343C73.0769 273.557 72.5639 272.77 72.0499 271.984C71.1185 274.019 69.9918 276.021 69.185 278.104C68.6699 279.433 68.7509 281.321 68.2338 282.484C67.5848 283.944 66.7946 283.749 65.9857 284.965C65.1207 286.265 64.8424 288.012 63.9307 289.407C59.99 295.434 58.474 303.083 56.4491 309.96C53.7326 319.188 54.1615 329.793 54.309 339.307C54.4657 349.356 55.0151 359.405 56.5259 369.349C57.8945 378.353 60.8207 386.99 65.4021 394.886C69.3937 401.766 74.8982 405.775 81.9489 409.299C85.1866 410.917 88.1918 410.417 91.5904 410.676C95.3131 410.959 97.8519 411.97 101.791 411.08C103.68 410.653 104.575 409.277 106.076 408.819C107.005 408.535 107.506 408.999 108.398 408.891C109.674 408.736 112.328 408.11 113.712 408.261C118.019 408.731 117.296 415.241 117.72 418.565C118.372 423.686 118.849 428.861 119.729 433.949C121.578 444.651 125.571 454.648 127.93 465.165C116.994 466.5 107.613 468.541 97.3629 472.68C87.0796 476.831 76.6832 478.241 65.8611 480.305C55.7367 482.235 45.9987 485.844 37.895 492.38C34.0966 495.443 30.1507 499.027 32.9398 504.07C34.7238 507.296 37.9387 508.116 40.7143 509.991C41.275 509.281 39.6531 507.777 39.3561 507.361C41.6893 507.84 41.6177 508.929 43.3217 509.876C44.8108 510.705 46.0298 510.676 47.6601 511.261C51.6403 512.691 53.5956 516.258 57.5301 517.26C58.7678 517.575 60.3867 518.328 61.6525 518.542C63.1727 518.799 64.3108 518.134 65.8517 518.416C66.6835 518.963 67.5827 519.355 68.5495 519.59C69.1829 519.296 69.8091 518.985 70.4259 518.658C72.6397 518.888 74.0073 520.28 75.8058 521.424C75.9262 519.983 75.7528 518.485 77.1173 517.545C77.65 518.947 76.7892 519.834 78.2429 520.799C80.085 522.022 82.5045 520.495 84.1534 519.722C84.6197 524.381 95.4065 524.106 98.826 524.04C103.561 523.948 108.291 522.07 113.068 523.118C115.505 523.652 118.106 524.21 120.532 524.905C123.453 525.739 126.984 526.485 129.859 527.538C131.003 527.957 132.403 529.298 133.62 529.208C134.589 529.135 134.849 527.706 135.977 527.747C137.253 527.794 137.682 529.215 138.786 529.643C140.44 530.282 141.96 529.067 143.531 529.681C144.096 529.901 144.861 530.848 145.584 531.156C146.681 531.624 148.853 531.63 150.074 531.856C151.805 532.177 153.355 531.961 154.838 532.067C156.034 532.153 156.008 532.957 156.58 533.009C157.237 533.069 158.38 530.811 159.262 530.481C160.546 529.999 162.877 531.147 164.187 531.349C154.698 544.211 143.257 555.579 130.855 565.533C117.478 576.271 103.779 586.995 89.4337 596.413C76.4091 604.965 63.8009 612.361 53.7025 624.432C45.1877 634.611 31.6335 645.502 33.7228 660.256C35.811 674.997 51.8178 680.997 64.6441 683.811C80.7755 687.351 97.3815 685.926 113.557 687.916C120.455 688.765 128.119 688.312 135.063 687.589C143.264 686.734 150.293 681.382 157.344 677.512C170.026 670.551 180.868 661.236 193.36 654.057C209.001 645.068 224.477 635.544 241.624 629.523C249.601 626.723 257.813 623.526 264.248 617.766C265.206 616.908 265.919 615.615 267.001 614.908C268.84 613.708 269.333 614.925 270.401 614.561C271.222 614.281 272.018 613.394 272.728 613.128C274.527 612.453 275.33 612.732 277.345 612.732C275.616 611.735 274.033 609.165 275.828 607.071C278.9 603.484 279.43 609.216 280.584 610.544C281.563 609.287 281.188 608.168 280.938 606.739C281.764 607.284 282.592 607.83 283.419 608.376C282.849 605.611 283.391 603.064 284.856 600.654C286.207 598.433 286.541 598.746 286.913 595.668C291.11 599.498 291.93 590.201 292.308 586.811C292.673 583.524 292.312 581.164 294.474 578.289C296.795 575.203 300.324 573.252 303.27 570.854C307.924 567.066 313.045 562.281 319.481 565.914C324.561 568.783 327.326 575.816 332.093 579.429C334.984 581.622 338.036 581.843 339.879 585.242C341.369 587.99 341.853 591.279 343.26 594.101C346.668 600.94 351.574 608.766 357.171 614.012C362.381 618.895 369.069 618.87 375.166 621.899C381.201 624.898 387.472 628.146 393.861 630.319C400.838 632.693 408.362 633.702 415.155 636.578C418.649 638.057 421.774 640.284 425.299 641.701C429.101 643.228 433.106 644.304 436.958 645.703C452.222 651.247 467.159 658.046 483.194 661.119C490.306 662.481 496.89 666.184 504.054 666.963C507.127 667.298 509.633 667.721 512.641 668.49C517.358 669.695 516.359 670.337 518.097 674.27C520.956 680.745 527.938 676.911 533.32 677.073C541.935 677.333 550.419 675.94 559.02 675.873C574.062 675.758 588.545 674.063 603.096 669.125C617.704 664.167 634.336 652.219 622.195 635.711Z" fill="#4D1B7C"/>
<path d="M240.975 261.102C247.173 253.454 257.179 245.2 257.325 234.511C257.541 218.784 240.087 226.631 231.312 227.285C235.952 222.726 259.269 203.599 245.477 196.805C241.513 194.853 235.878 196.761 231.9 197.783C224.842 199.599 218.28 202.742 211.346 204.93C216.301 199.656 224.861 193.662 224.581 185.674C224.238 175.952 216.257 178.302 209.356 179.729C206.704 180.278 194.857 184.991 192.631 181.791C191.816 180.619 193.135 179.129 193.414 178.086C193.908 176.239 193.755 175.595 193.772 173.709C193.806 169.903 196.334 165.017 194.272 161.477C193.801 162.282 193.397 163.118 193.061 163.988C192.381 161.928 192.838 159.744 192.158 157.684C209.387 162.09 226.914 164.502 244.251 168.263C253.028 170.167 261.288 173.446 270.185 174.922C279.158 176.409 287.975 178.686 296.964 180.104C305.166 181.398 313.024 183.552 321.146 185.205C329.064 186.815 337.184 183.285 344.912 181.498C362.221 177.495 379.524 173.394 396.856 169.509C416.856 165.025 437.661 161.192 456.805 153.713C457.176 163.68 457.973 173.629 459.191 183.527C450.737 179.531 438.19 174.319 429.643 181.471C426.222 184.332 425.168 189.272 426.52 193.474C427.992 198.047 432.499 200.171 435.473 203.614C426.422 201.294 403.071 184.933 398.915 201.47C395.979 213.15 410.299 220.695 417.3 227.269C410.347 225.908 401.036 220.349 396.953 229.283C393.425 237.006 397.675 245.411 402.028 251.781C404.387 255.232 407.04 258.481 409.548 261.825C410.874 263.594 412.169 265.387 413.562 267.104C414.96 268.826 417.596 270.629 418.576 272.482C420.548 276.219 416.568 276.448 413.474 277.798C409.61 279.483 406.292 282.314 402.759 284.57C394.668 289.736 387.596 294.534 378.035 296.186C368.191 297.885 358.712 299.66 348.998 302.03C339.314 304.393 331.409 306.664 321.51 303.61C316.997 302.217 313.321 300.98 308.534 301.241C303.506 301.517 300.566 301.256 296.432 298.141C278.644 284.744 259.335 273.75 240.975 261.102Z" fill="#9A6AC8"/>
<path fill-rule="evenodd" clip-rule="evenodd" d="M448.321 129.775C449.01 130.106 448.527 129.981 448.321 129.775Z" fill="#4D1B7C"/>
<path fill-rule="evenodd" clip-rule="evenodd" d="M183.363 405.572C186.63 402.262 200.53 402.931 201.581 408.853C202.752 415.464 190.332 425.449 185.786 428.248C179.937 431.85 172.797 432.525 173.834 423.48C174.618 416.648 178.711 410.286 183.363 405.572ZM194.842 398.757C195.266 400.588 192.142 399.965 191.282 399.531C190.876 398.698 194.418 396.919 194.842 398.757ZM170.872 410.88C173.644 411.129 176.821 406.681 178.913 405.166C179.837 406.595 173.741 414.45 173.07 416.242C171.395 420.72 170.463 426.378 172.746 430.844C179.421 443.897 196.501 425.258 200.773 418.747C203.762 414.193 205.831 408.547 201.609 404.084C200.106 402.495 197.623 402.054 196.227 400.543C194.389 398.556 195.835 395.991 192.14 396.425C189.59 396.724 186.529 399.025 184.05 399.857C181.062 400.86 178.376 401.899 175.768 403.758C175.18 404.177 167.447 410.572 170.872 410.88Z" fill="#4D1B7C"/>
<path fill-rule="evenodd" clip-rule="evenodd" d="M366.82 415.261C365.077 424.229 356.191 433.428 346.84 433.786C337.528 434.141 334.513 424.385 336.157 416.609C337.559 409.977 343.291 398.455 351.469 399.724C357.898 400.721 368.313 407.574 366.82 415.261ZM360.89 400.272C354.986 395.704 346.829 393.59 339.986 397.214C337.742 398.403 328.786 403.645 331.511 407.193C335.186 404.346 338.358 400.394 343.133 399.446C342.33 403.148 337.744 406.478 336.128 410.083C334.239 414.294 333.206 419.114 333.515 423.742C334.066 431.979 339.583 438.379 348.124 437.246C355.944 436.21 362.78 430.216 366.51 423.479C371.491 414.481 368.685 406.303 360.89 400.272Z" fill="#4D1B7C"/>
<path fill-rule="evenodd" clip-rule="evenodd" d="M306.062 435.646C301.858 441.871 295.448 447.726 288.037 449.648C278.442 452.136 281.138 444.208 284.005 438.518C286.54 433.487 290.889 424.833 297.512 424.879C299.76 424.894 303.946 425.981 305.916 427.183C309.799 429.553 308.275 432.371 306.062 435.646ZM297.107 421.967C298.616 420.287 305.296 413.082 306.191 418.698C308.109 416.474 306.596 414.629 304.14 414.394C301.178 414.11 297.939 417.409 295.801 419.048C291.401 422.42 288.014 425.874 285.098 430.601C281.883 435.813 273.686 447.593 280.86 452.765C288.614 458.355 299.9 448.031 304.756 442.707C307.861 439.301 311.974 434.3 310.793 429.305C309.343 423.171 302.208 422.527 297.107 421.967Z" fill="#4D1B7C"/>
<path fill-rule="evenodd" clip-rule="evenodd" d="M264.021 321.655C259.682 326.606 250.868 333.82 243.605 332.97C236.981 332.195 239.567 324.76 241.911 321.162C245.433 315.754 250.151 310.677 256.968 310.381C259.911 310.254 263.725 310.313 266.004 312.542C269.117 315.586 266.314 319.041 264.021 321.655ZM263.56 307.901C258.477 306.145 256.48 305.475 251.54 308.267C247.573 310.509 244.055 313.678 241.333 317.276C237.259 322.662 233.15 334.778 243.611 336.293C255.086 337.956 282.381 314.408 263.56 307.901Z" fill="#4D1B7C"/>
<path fill-rule="evenodd" clip-rule="evenodd" d="M279.2 338.811C275.899 342.183 271.778 344.934 267.074 345.873C269.064 341.433 273.507 331.733 278.775 330.381C281.202 329.758 283.969 330.574 283.769 333.34C283.625 335.339 280.502 337.48 279.2 338.811ZM283.449 327.075C280.716 325.705 281.578 324.769 278.398 325.844C275.892 326.689 272.731 328.158 270.644 329.851C269.506 330.774 265.961 334.048 266.395 335.715C267.181 338.742 269.825 334.103 270.52 333.211C271.711 334.181 265.62 342.897 265.258 344.331C263.907 349.673 268.1 350.238 272.209 348.49C277.75 346.134 294.159 332.441 283.449 327.075Z" fill="#4D1B7C"/>
<path fill-rule="evenodd" clip-rule="evenodd" d="M364.693 470.805C365.102 467.264 365.683 463.52 368.933 461.532C371.861 459.739 374.894 459.999 375.327 463.675C375.731 467.088 372.386 473.152 369.68 475.014C365.913 477.608 365.187 474.374 364.693 470.805ZM369.533 478.862C377.268 474.336 382.143 453.579 367.885 459.397C359.783 462.703 362.763 482.824 369.533 478.862Z" fill="#4D1B7C"/>
<path fill-rule="evenodd" clip-rule="evenodd" d="M303.473 392.788C304.693 390.287 306.088 389.458 308.562 388.364C306.913 389.921 305.228 391.359 303.473 392.788ZM305.258 386.627C303.506 388.384 299.491 391.064 300.054 394.084C300.567 396.84 302.672 396.681 304.581 395.822C308.585 394.023 310.812 386.144 315 385.405C310.355 382.462 309.271 382.598 305.258 386.627Z" fill="#4D1B7C"/>
<path fill-rule="evenodd" clip-rule="evenodd" d="M305.873 230.145C306.096 238.536 306.292 246.926 306.477 255.318C306.542 258.267 305.838 262.471 306.723 265.295C307.114 266.539 310.648 271.933 311.902 272.282C316.289 273.504 314.722 262.505 314.752 259.797C314.859 250.66 314.725 241.513 314.688 232.375C314.667 227.667 315.997 188.184 309.887 188.377C308.835 188.411 306.242 192.925 305.852 193.829C304.624 196.672 305.076 200.885 305.104 203.914C305.187 212.654 305.641 221.407 305.873 230.145Z" fill="#4D1B7C"/>
<path fill-rule="evenodd" clip-rule="evenodd" d="M342.866 254.605C343.21 256.925 343.029 260.794 345.641 261.997C347.913 263.043 348.784 261.798 349.634 259.854C351.588 255.382 350.883 248.545 350.847 243.922C350.775 234.758 349.743 225.633 349.03 216.503C348.716 212.498 349.367 208.474 348.867 204.283C348.647 202.443 348.428 195.044 345.018 195.388C341.935 195.699 342.213 203.455 342.045 205.453C340.647 222.086 340.404 238.001 342.866 254.605Z" fill="#4D1B7C"/>
<path fill-rule="evenodd" clip-rule="evenodd" d="M488.386 445.615C487.079 452.296 465.76 475.559 460.392 462.548C457.207 454.829 464.111 446.426 469.494 441.957C472.826 439.191 476.988 436.478 481.529 437.316C485.384 438.027 489.215 441.372 488.386 445.615ZM477.377 433.633C475.871 433.989 463.285 442.827 463.17 442.711C462.077 441.613 470.015 429.781 470.832 428.746C477.562 420.218 482.029 426.676 486.238 433.378C485.342 429.374 482.876 423.563 478.755 421.87C473.552 419.733 469.494 425.008 466.991 428.801C463.453 434.162 461.503 439.983 459.537 446.032C458.599 448.918 457.531 451.533 455.944 454.134C454.377 456.701 451.635 459.531 452.04 462.779C454.268 461.54 455.451 459.116 456.854 457.119C458.42 457.753 457.882 462.746 458.2 464.017C458.999 467.21 461.181 469.708 464.555 470.258C470.844 471.281 477.633 465.462 481.838 461.511C486.269 457.347 491.038 451.638 491 445.229C490.959 438.534 484.374 431.977 477.377 433.633Z" fill="#4D1B7C"/>
<path fill-rule="evenodd" clip-rule="evenodd" d="M494.427 326.29C490.859 331.75 484.598 338.297 477.973 339.566C473.11 340.497 469.902 336.893 471.856 332.027C473.506 327.915 479.128 325.319 482.813 323.51C485.736 322.074 499.365 318.732 494.427 326.29ZM491.802 317.357C484.493 317.081 478.597 322.366 473.147 326.583C474.378 321.739 477.162 316.468 481.083 313.314C486.418 309.023 491.476 311.687 497.093 313.834C495.707 309.461 489.487 307.888 485.524 308.506C480.514 309.287 476.911 313.564 474.378 317.702C471.356 322.638 470.322 328.456 466.765 333.086C465.136 335.205 455.051 343.135 457.335 346.377C461.101 342.378 464.869 338.38 468.636 334.381C469.613 339.107 470.689 344.488 476.723 344.029C481.542 343.661 487.038 339.565 490.562 336.434C495.112 332.39 504.068 317.821 491.802 317.357Z" fill="#4D1B7C"/>
<path fill-rule="evenodd" clip-rule="evenodd" d="M389.414 363.987C386.318 365.411 379.502 367.346 377.771 363.068C375.366 357.128 383.104 346.707 386.787 342.749C389.053 340.313 390.59 339.053 393.749 340.629C396.271 341.888 399.977 345.465 400.944 348.215C403.021 354.117 394.257 361.76 389.414 363.987ZM396.518 335.455C399.039 336.023 399.348 339.225 396.195 337.996C393.833 337.075 393.284 334.726 396.518 335.455ZM399.683 339.965C398.742 337.092 400.657 332.588 396.02 332.38C393.393 332.263 388.58 334.934 386.286 336.02C383.106 337.525 380.114 339.822 378.454 343.057C376.916 346.054 378.014 346.844 380.358 344.356C380.645 344.551 375.056 358.965 375.007 360.41C374.789 367.01 379.461 371.357 386.023 370.186C392.054 369.111 397.489 364.179 400.808 359.202C402.487 356.682 403.866 353.798 403.991 350.712C404.185 345.978 401.029 344.075 399.683 339.965Z" fill="#4D1B7C"/>
<path fill-rule="evenodd" clip-rule="evenodd" d="M428.611 337.544C426.066 332.643 431.962 324.397 437.241 326.809C448.233 331.832 431.949 343.969 428.611 337.544ZM438.485 331.147C437.306 331.194 429.848 334.075 430.946 336.027C432.452 338.706 437.895 332.224 438.485 331.147Z" fill="#4D1B7C"/>
<path fill-rule="evenodd" clip-rule="evenodd" d="M77.9458 322.089C77.6511 320.002 72.9727 323.032 73.0001 324.377C73.7736 322.829 78.5597 326.439 77.9458 322.089Z" fill="#4D1B7C"/>
<path fill-rule="evenodd" clip-rule="evenodd" d="M333.806 164.372C339.762 163.934 332.173 133.886 327.833 136.543C323.127 139.423 328.34 164.773 333.806 164.372Z" fill="#4D1B7C"/>
<path fill-rule="evenodd" clip-rule="evenodd" d="M344.929 150.341C350.509 151.14 349.622 138.327 346.621 136.034C341.081 131.8 338.154 149.37 344.929 150.341Z" fill="#4D1B7C"/>
</svg>
