<svg width="114" height="55" viewBox="0 0 114 55" fill="none" xmlns="http://www.w3.org/2000/svg">
<path d="M0 14.633V40.367H3.68227V14.633H0ZM7.36454 14.633V40.367H11.0468V14.633H7.36454ZM14.7291 14.633V40.367H18.4113V14.633H14.7291ZM22.0936 14.633V40.367H25.7759V14.633H22.0936ZM29.4582 14.633V18.3093H55.234V14.633H29.4582ZM29.4582 21.9856V25.6619H55.234V21.9856H29.4582ZM29.4582 29.3381V33.0144H55.234V29.3381H29.4582ZM29.4582 36.6907V40.367H55.234V36.6907H29.4582Z" fill="#4D1B7C"/>
<path d="M74.5082 26.9309C75.4305 27.0765 76.2678 27.4527 77.0201 28.0594C77.7967 28.6661 78.4035 29.4185 78.8403 30.3165C79.3014 31.2144 79.532 32.1731 79.532 33.1924C79.532 34.4787 79.2044 35.6436 78.5491 36.6872C77.8938 37.7065 76.9352 38.5196 75.6731 39.1263C74.4354 39.7088 72.9671 40 71.2682 40H61.8031V14.6262H70.9042C72.6273 14.6262 74.0956 14.9175 75.3091 15.4999C76.5226 16.0581 77.4327 16.8226 78.0394 17.7934C78.6462 18.7642 78.9495 19.8563 78.9495 21.0698C78.9495 22.5745 78.537 23.8244 77.7118 24.8194C76.9109 25.7902 75.843 26.494 74.5082 26.9309ZM65.1159 25.5839H70.6858C72.239 25.5839 73.4404 25.2199 74.2898 24.4918C75.1392 23.7637 75.5639 22.7565 75.5639 21.4702C75.5639 20.184 75.1392 19.1768 74.2898 18.4487C73.4404 17.7206 72.2147 17.3566 70.613 17.3566H65.1159V25.5839ZM70.977 37.2697C72.6273 37.2697 73.9136 36.8814 74.8359 36.1047C75.7581 35.3281 76.2192 34.2481 76.2192 32.8648C76.2192 31.4571 75.7338 30.3529 74.763 29.552C73.7923 28.7268 72.4938 28.3142 70.8678 28.3142H65.1159V37.2697H70.977ZM87.442 23.7637C88.1215 22.5745 89.1166 21.6037 90.4271 20.8514C91.7377 20.099 93.2302 19.7228 94.9048 19.7228C96.7008 19.7228 98.3147 20.1475 99.7466 20.997C101.179 21.8464 102.307 23.0478 103.132 24.601C103.957 26.13 104.37 27.9138 104.37 29.9524C104.37 31.9668 103.957 33.7627 103.132 35.3403C102.307 36.9178 101.166 38.1434 99.7102 39.0171C98.2783 39.8908 96.6765 40.3276 94.9048 40.3276C93.1817 40.3276 91.6649 39.9515 90.3543 39.1991C89.068 38.4468 88.0972 37.4881 87.442 36.3232V40H84.1292V13.0609H87.442V23.7637ZM100.984 29.9524C100.984 28.4477 100.681 27.1372 100.074 26.0208C99.4675 24.9044 98.6423 24.0549 97.5988 23.4725C96.5794 22.89 95.4509 22.5988 94.2132 22.5988C92.9997 22.5988 91.8711 22.9021 90.8276 23.5089C89.8082 24.0913 88.9831 24.9529 88.3521 26.0936C87.7453 27.21 87.442 28.5084 87.442 29.9888C87.442 31.4935 87.7453 32.8162 88.3521 33.9569C88.9831 35.0733 89.8082 35.9349 90.8276 36.5416C91.8711 37.1241 92.9997 37.4153 94.2132 37.4153C95.4509 37.4153 96.5794 37.1241 97.5988 36.5416C98.6423 35.9349 99.4675 35.0733 100.074 33.9569C100.681 32.8162 100.984 31.4814 100.984 29.9524ZM109.786 40.2184C109.155 40.2184 108.621 40 108.184 39.5632C107.748 39.1263 107.529 38.5924 107.529 37.9614C107.529 37.3304 107.748 36.7964 108.184 36.3596C108.621 35.9227 109.155 35.7043 109.786 35.7043C110.393 35.7043 110.903 35.9227 111.315 36.3596C111.752 36.7964 111.97 37.3304 111.97 37.9614C111.97 38.5924 111.752 39.1263 111.315 39.5632C110.903 40 110.393 40.2184 109.786 40.2184Z" fill="#4D1B7C"/>
</svg>
